<svg width="48" height="50" fill="none" xmlns="http://www.w3.org/2000/svg"><path d="M40.97 41.088c4.533-4.546 7.03-10.59 7.03-17.02 0-6.428-2.497-12.472-7.03-17.018C36.438 2.504 30.41 0 24 0 17.59 0 11.563 2.504 7.03 7.05 2.495 11.597 0 17.64 0 24.07c0 6.428 2.497 12.473 7.03 17.02.48.48.977.94 1.49 1.375-.225.827-.356 1.67-.172 2.477.069.302.054.616.462.675.18.025.6.446.749.544 6.968 4.6 16.457 4.561 24.286 2.52 1.69-.44 3.27-1.071 4.849-1.803.417-.195.525-.482.58-.848a3.06 3.06 0 0 0 .029-.463c-.4-.616-.628-1.4-.628-2.086 0-.124.008-.25.022-.378a24.356 24.356 0 0 0 2.274-2.013Zm-26.98 2.105c-.055.06-.122.111-.195.177-.009-.05-.025-.08-.016-.09.398-.58.383-.56-.195-1.025a14.48 14.48 0 0 1-1.256-1.169c-.095-.096-.158-.316-.117-.438.7-2.105 1.43-4.198 2.507-6.148.018-.032.04-.06.062-.09l.061.038c-.237.497-.506.983-.708 1.495-.596 1.506-1.162 3.023-1.754 4.532-.114.288-.043.487.172.672.462.398.923.798 1.384 1.197.311.268.33.551.055.85v-.001Zm.897-.781c-.035 0-.069-.002-.103-.003l.2-7.21.15-.007-.247 7.22Zm1.216-20.02c-.028.08-.243.146-.363.133-.54-.061-1.076-.151-1.596-.23-.59.081-1.153.17-1.718.225-.105.01-.292-.087-.324-.177-.42-1.171.246-2.457 1.41-2.758 1.41-.365 2.673.531 2.744 1.994.014.27-.062.555-.153.813Zm1.613-.184c-.29.013-.393-.092-.363-.373a2.43 2.43 0 0 0 .001-.458c-.062-.79.37-.946.933-1.012.163-.018.33-.02.494-.025.915-.02 1.741.273 2.486.805.412.295.474 1.098.094 1.43-.042.038-.137.045-.197.027a10.552 10.552 0 0 0-3.449-.394Zm1.527 13.21c.523 1.915.61 4.104.706 6.293l-.706-6.294Zm3.532 10.235c.04-.194.046-.306.088-.403.133-.307-.02-.504-.234-.691-.525-.463-1.05-.926-1.568-1.396-.392-.356-.388-.446.006-.81.411-.38.813-.77 1.238-1.135.26-.223.321-.466.187-.77-.576-1.306-1.124-2.624-1.745-3.908-.343-.711-.811-1.363-1.223-2.041l.09-.072c.46.726.986 1.419 1.365 2.184.61 1.233 1.115 2.519 1.68 3.775.168.372.082.649-.202.907-.376.341-.732.705-1.117 1.035-.437.375-.447.469-.026.85.453.41.904.822 1.349 1.242.46.432.475.577.113 1.233h-.001Zm11.334-11.737c-.743-1.016-.696-1.94.024-3.028.122-.185.277-.35.455-.573.088.717.5 1.057 1.083 1.244a9.278 9.278 0 0 0 3.257.445c.387-.018.465.152.431.474-.177 1.642-1.435 2.56-2.779 2.604-1.031.034-1.87-.345-2.471-1.166Zm3.15 6.504c.09-.068.144-.114.204-.154.852-.575 1.602-1.26 2.159-2.13.203-.317.427-.512.798-.628 1.014-.317 1.655-1.823.708-2.6-.065-.053-.123-.179-.109-.257.685-3.552.11-7.284-2.822-9.726-2.23-1.857-5.33-2.268-8.052-1.388-2.929.948-4.851 3.131-5.788 6.01-.367 1.131-1.046 2.72-.378 3.854.256.435.52.866.778 1.294-.908.867-1.046 1.448-.549 2.247.334.536 1.116.89 1.604.722-.093-.233-.19-.463-.275-.699-.08-.224-.143-.454-.215-.682 1.585 3.973 4.788 5.142 8.687 5.147-1.939.211-3.785-.196-5.544-.894-1.579 1.98-1.808 4.337-1.99 6.703a9.943 9.943 0 0 0-.012.134 4.7 4.7 0 0 1-.035-.129c-.133-.488-.228-.967-.35-1.439-.54-2.107-1.076-4.216-1.64-6.316-.36-1.343-.761-2.674-1.16-4.005-.045-.149-.179-.345-.31-.381-1.188-.33-2.385-.625-3.578-.942-.215-.056-.466-.124-.427-.44.034-.283-.136-.61.358-.744.727-.195 1.3-.658 1.734-1.296.13-.19.367-.336.586-.422.45-.176.92-.298 1.428-.455-.287-.361-.54-.66-.766-.977-.096-.134-.135-.307-.2-.463.156-.062.309-.148.472-.18.425-.086.856-.147 1.308-.221l-.676-1.874c.95-.31 1.858-.599 2.697-1.206-.506-.277-.974-.499-1.406-.775-.438-.28-.839-.617-1.343-.993 1.642-.556 3.16-1.05 4.458-2.127l-3.311-1.395 3.121-2.928-4.007-.627 2.36-4.049-.066-.057-3.806 1.386c-.472-1.647-.593-3.268-.427-4.947-.121.032-.21.041-.285.08-1.5.752-2.853 1.694-3.875 3.138-.978-1.296-1.845-2.61-3.074-3.672-.17 1.592-.322 3.13-1.091 4.56a8.95 8.95 0 0 0-3.826-1.334c.751 1.244 1.18 2.51 1.31 3.89l-4.999.387c.042.08.054.117.079.143.06.066.124.127.19.186.912.819 1.777 1.675 2.376 2.768.376.687.084.782-.495 1.19-.826.582-1.978 1.153-2.629 1.906.126.06.294.121.44.121.534.087 3.92 1.58 3.2 2.268-.654.624-1.29 1.266-1.927 1.906-.072.07-.11.174-.169.271.866.28 1.675.57 2.5.798.357.098.392.226.296.554-.21.725-.374 1.463-.57 2.248.752-.057 1.458-.09 2.156-.175.257-.032.303.029.317.26.034.533.096 1.063.15 1.638l1.312-.55c-1.845-2.63-2.2-5.593-2.206-8.625.04.47.095.94.12 1.41.098 1.866.525 3.653 1.22 5.384.563 1.398 1.465 2.42 2.965 2.81.258.068.258.244.25.441-.008.21.044.414-.26.511a153.37 153.37 0 0 0-4.024 1.36.688.688 0 0 0-.37.4c-.466 1.574-.917 3.154-1.38 4.73-.12.41-.27.84-.413 1.278-4.899-4.277-8-10.574-8-17.582C.765 11.22 11.188.767 24 .767S47.235 11.22 47.235 24.07c0 7.38-3.439 13.97-8.794 18.241-.257-.686-.612-1.332-1.182-1.89Zm-4.96-7.216c-.292 1.086-1.054 1.772-2.194 1.95-1.509.236-2.833-.526-3.288-1.872-.024-.072-.05-.143-.06-.217-.161-1.007-.149-.988.84-1.058a17.025 17.025 0 0 0 2.318-.316c.712-.152 1.369-.446 1.39-1.416 1.016.815 1.29 1.821.993 2.93Z" fill="#000"/></svg>